#!OML:ASF H:\Terrain\Patient Classification 1\Takeo\Monday\TakeoMonday.ASF
:FULLY-SPECIFIED
:DEGREES
327
root 11.1044 17.7973 26.3575 -3.36641 5.73307 1.77622
lowerback 7.0286 -1.51063 -2.39317
upperback 1.80097 -2.14899 1.2179
thorax -1.94304 -1.06462 2.78201
lowerneck -11.2843 0.933539 -1.29276
upperneck 0.370964 1.53313 -3.13229
head 2.07266 0.659437 -0.697147
rclavicle 1.27471e-014 -5.1684e-015
rhumerus -46.3684 -24.1381 -68.6503
rradius 11.555
rwrist 14.1853
rhand -23.9813 19.2526
rfingers 7.12502
rthumb 2.49543 -10.7126
lclavicle 1.27471e-014 -5.1684e-015
lhumerus -26.069 -6.82242 90.0298
lradius 66.2178
lwrist 28.0626
lhand -23.8506 15.4359
lfingers 7.12502
lthumb 2.62169 45.3996
rfemur -25.236 5.70772 18.0861
rtibia 24.8348
rfoot -12.316 -16.346
rtoes -21.4137
lfemur 9.25314 -3.11512 -28.0279
ltibia 19.9229
lfoot -17.5645 3.16197
ltoes -5.5289
328
root 11.1022 17.7934 26.5478 -3.48684 5.83992 1.16713
lowerback 7.05154 -1.45737 -1.76519
upperback 1.69271 -2.0288 1.4101
thorax -2.09063 -1.00325 2.62077
lowerneck -11.1068 0.761172 -1.64594
upperneck 0.552793 1.3441 -2.93551
head 2.09366 0.568574 -0.583455
rclavicle 3.74461e-014 1.07344e-014
rhumerus -48.3517 -25.6932 -66.4151
rradius 11.4989
rwrist 15.27
rhand -22.2718 17.494
rfingers 7.12502
rthumb 4.14632 -12.4454
lclavicle 3.74461e-014 1.07344e-014
lhumerus -26.4899 -7.20062 90.3226
lradius 66.8909
lwrist 28.6522
lhand -23.9557 15.6731
lfingers 7.12502
lthumb 2.52014 45.6379
rfemur -24.9797 5.17791 19.1114
rtibia 22.9535
rfoot -12.4718 -16.1564
rtoes -21.1603
lfemur 10.3909 -3.06952 -27.2898
ltibia 19.188
lfoot -17.4531 2.79235
ltoes -4.45336
329
root 11.0969 17.7781 26.7368 -3.58903 5.81424 1.06798
lowerback 7.40737 -1.37935 -1.74562
upperback 1.33573 -1.92422 1.5189
thorax -2.66019 -0.939288 2.73248
lowerneck -10.5511 0.705612 -1.99728
upperneck 0.662528 1.29443 -2.74166
head 2.02377 0.550917 -0.464845
rclavicle -2.56432e-014 2.50469e-014
rhumerus -50.1482 -25.2139 -65.6765
rradius 11.7704
rwrist 14.365
rhand -21.1956 16.423
rfingers 7.12502
rthumb 5.18547 -13.4936
lclavicle -2.56432e-014 2.50469e-014
lhumerus -27.4586 -7.22242 90.6818
lradius 67.618
lwrist 29.1171
lhand -25.1604 15.0804
lfingers 7.12502
lthumb 1.35663 45.0558
rfemur -24.9125 4.31718 19.7889
rtibia 21.8185
rfoot -12.4101 -15.2554
rtoes -20.7984
lfemur 11.6121 -3.01147 -27.1175
ltibia 18.2087
lfoot -17.1403 2.52836
ltoes -3.97923
330
root 11.0783 17.755 26.9216 -4.24371 5.35907 0.0311115
lowerback 9.08417 -1.21809 -0.884777
upperback 0.53135 -1.62355 1.83355
thorax -4.4642 -0.768109 2.61236
lowerneck -9.49431 0.774388 -1.71865
upperneck 0.841805 1.33454 -2.95181
head 1.89657 0.571913 -0.58024
rclavicle 2.46866e-014 -1.23246e-014
rhumerus -53.1337 -24.7541 -64.2926
rradius 12.2982
rwrist 14.4773
rhand -21.1125 14.9557
rfingers 7.12502
rthumb 5.26572 -14.9589
lclavicle 2.46866e-014 -1.23246e-014
lhumerus -29.3718 -7.1762 90.9522
lradius 68.2667
lwrist 28.8548
lhand -26.5029 13.2129
lfingers 7.12502
lthumb 0.0600363 43.1926
rfemur -24.4643 4.20736 21.5539
rtibia 21.1238
rfoot -12.4959 -14.1324
rtoes -20.6065
lfemur 13.1811 -2.77049 -25.9178
ltibia 17.4898
lfoot -16.8942 2.63177
ltoes -5.31173
331
root 11.1121 17.7359 27.0872 -3.14446 6.79857 2.3044
lowerback 6.81334 -1.52696 -2.65401
upperback 1.54853 -2.18902 1.09092
thorax -2.07623 -1.07828 2.79857
lowerneck -10.8358 0.72563 -1.46953
upperneck -0.0377506 1.25915 -3.23573
head 1.85224 0.530534 -0.713581
rclavicle 9.74045e-015 -9.93923e-015
rhumerus -52.444 -26.9483 -63.5669
rradius 12.4822
rwrist 15.3284
rhand -20.7985 12.2593
rfingers 7.12502
rthumb 5.56886 -17.6475
lclavicle 9.74045e-015 -9.93923e-015
lhumerus -27.1249 -7.43969 90.7423
lradius 68.1468
lwrist 28.9457
lhand -26.6881 12.6684
lfingers 7.12502
lthumb -0.118823 42.6481
rfemur -25.5426 1.30757 19.3544
rtibia 20.868
rfoot -12.6513 -11.7996
rtoes -20.4863
lfemur 13.1588 -3.45787 -28.4056
ltibia 16.9537
lfoot -16.2789 2.25622
ltoes -7.33177
332
root 11.1182 17.713 27.2633 -2.80226 7.47054 2.76234
lowerback 5.04528 -1.7425 -3.07215
upperback 2.76074 -2.44396 0.995305
thorax 0.187542 -1.26347 2.85884
lowerneck -12.2211 0.585002 -1.54508
upperneck -0.647017 1.10508 -3.38386
head 1.89833 0.447076 -0.753868
rclavicle -1.03865e-014 -1.55052e-014
rhumerus -50.3507 -27.2289 -65.1372
rradius 12.9089
rwrist 12.5647
rhand -18.5723 7.50909
rfingers 7.12502
rthumb 7.718 -22.3301
lclavicle -1.03865e-014 -1.55052e-014
lhumerus -24.9396 -7.5551 90.5654
lradius 67.9588
lwrist 29.3203
lhand -26.4705 13.3934
lfingers 7.12502
lthumb 0.0912953 43.3731
rfemur -26.0039 0.332366 19.0597
rtibia 20.8393
rfoot -12.9276 -10.934
rtoes -20.3349
lfemur 13.5699 -3.79138 -28.8113
ltibia 16.7617
lfoot -16.0015 1.95375
ltoes -8.58017
333
root 11.1022 17.7053 27.4502 -2.99904 7.64074 1.97641
lowerback 5.32728 -1.8153 -2.44528
upperback 2.6323 -2.51883 1.28389
thorax -0.111438 -1.28985 2.82147
lowerneck -12.1774 0.572079 -1.65141
upperneck -0.682184 1.09729 -3.29364
head 1.8768 0.446886 -0.706952
rclavicle 1.89342e-014 4.37326e-015
rhumerus -53.0722 -29.7268 -60.6702
rradius 10.4383
rwrist 19.9014
rhand -22.7926 14.7361
rfingers 7.12502
rthumb 3.64338 -15.2125
lclavicle 1.89342e-014 4.37326e-015
lhumerus -25.47 -7.42817 90.7401
lradius 68.1551
lwrist 29.2749
lhand -26.6974 13.2318
lfingers 7.12502
lthumb -0.127838 43.2115
rfemur -25.8672 1.1244 19.8906
rtibia 20.8506
rfoot -13.5308 -10.9755
rtoes -18.7844
lfemur 14.3093 -3.96672 -27.8342
ltibia 16.7779
lfoot -15.8001 1.92067
ltoes -10.7385
334
root 11.0895 17.6826 27.648 -3.15069 7.38321 1.64702
lowerback 5.63692 -1.72029 -2.223
upperback 2.36106 -2.38656 1.42468
thorax -0.575033 -1.21235 2.85302
lowerneck -11.9015 0.61029 -1.42431
upperneck -0.518909 1.12853 -3.71563
head 1.88854 0.449644 -0.880141
rclavicle 2.32081e-014 -7.95139e-015
rhumerus -54.2429 -29.5586 -60.0051
rradius 11.1417
rwrist 17.7107
rhand -19.9323 10.2945
rfingers 7.12502
rthumb 6.40513 -19.5887
lclavicle 2.32081e-014 -7.95139e-015
lhumerus -26.4183 -7.10965 90.974
lradius 68.4218
lwrist 28.9847
lhand -27.0596 12.3116
lfingers 7.12502
lthumb -0.477692 42.2908
rfemur -25.3612 1.72989 20.3862
rtibia 20.313
rfoot -13.3931 -10.6724
rtoes -16.3307
lfemur 14.6298 -3.9612 -27.4421
ltibia 17.7733
lfoot -16.0599 2.05552
ltoes -12.6188
335
root 11.0619 17.6633 27.8516 -3.63031 6.5353 0.63367
lowerback 6.26359 -1.46722 -1.47918
upperback 2.07987 -2.00987 1.73865
thorax -1.25266 -1.00969 2.7636
lowerneck -11.4967 0.532862 -1.54466
upperneck -0.270737 1.03424 -3.56355
head 1.89443 0.406501 -0.815953
rclavicle -2.61153e-014 1.11319e-014
rhumerus -57.1374 -31.1695 -56.2033
rradius 10.5778
rwrist 21.243
rhand -20.8588 12.9143
rfingers 7.12502
rthumb 5.51073 -16.994
lclavicle -2.61153e-014 1.11319e-014
lhumerus -27.5316 -6.83661 91.0858
lradius 68.5153
lwrist 28.7341
lhand -27.0082 11.9604
lfingers 7.12502
lthumb -0.428033 41.9397
rfemur -24.5937 4.28382 21.4447
rtibia 20.0004
rfoot -12.5191 -12.0324
rtoes -15.6414
lfemur 15.2406 -3.37042 -26.1873
ltibia 18.6731
lfoot -16.3524 1.98965
ltoes -13.4843
336
root 11.0553 17.6436 28.0333 -3.49253 6.83262 0.315157
lowerback 6.37684 -1.57867 -1.12483
upperback 1.77665 -2.13258 1.8357
thorax -1.63019 -1.06363 2.68346
lowerneck -11.2823 0.504082 -1.52876
upperneck -0.132911 0.997207 -3.69361
head 1.90272 0.383805 -0.862521
rclavicle 2.15681e-014 -5.56597e-015
rhumerus -59.358 -32.3857 -53.1865
rradius 10.4854
rwrist 23.6936
rhand -20.906 13.268
rfingers 7.12502
rthumb 5.46511 -16.6415
lclavicle 2.15681e-014 -5.56597e-015
lhumerus -28.2644 -6.60878 91.1893
lradius 68.4008
lwrist 28.4961
lhand -26.866 12.0491
lfingers 7.12502
lthumb -0.290657 42.0286
rfemur -24.5804 4.60799 21.8171
rtibia 20.3564
rfoot -11.1799 -11.7271
rtoes -11.9969
lfemur 15.3403 -3.13634 -25.5373
ltibia 19.4927
lfoot -16.2776 1.25896
ltoes -14.7236
337
root 11.0506 17.6159 28.2424 -3.79935 6.49636 0.999306
lowerback 6.61127 -1.39872 -1.87141
upperback 1.74547 -1.94638 1.70335
thorax -1.78197 -0.967076 2.96145
lowerneck -11.1731 0.564591 -1.30456
upperneck 0.029252 1.06721 -4.13227
head 1.94485 0.404273 -1.03926
rclavicle -1.99282e-014 1.35174e-014
rhumerus -59.54 -31.1151 -54.2659
rradius 11.1166
rwrist 21.1806
rhand -19.9253 11.4934
rfingers 7.12502
rthumb 6.41196 -18.3896
lclavicle -1.99282e-014 1.35174e-014
lhumerus -29.0562 -6.3497 91.3392
lradius 68.3622
lwrist 28.256
lhand -27.5278 11.385
lfingers 7.12502
lthumb -0.929832 41.3627
rfemur -24.1177 5.41722 21.2411
rtibia 21.2402
rfoot -10.6095 -12.3587
rtoes -16.647
lfemur 16.0309 -2.82208 -26.2402
ltibia 20.525
lfoot -16.4645 1.08787
ltoes -14.9772
338
root 11.042 17.5824 28.4487 -3.94168 6.35918 1.49448
lowerback 6.4867 -1.37453 -2.50464
upperback 1.84741 -1.95647 1.60321
thorax -1.58851 -0.97565 3.20913
lowerneck -11.1377 0.779696 -0.636964
upperneck -0.0899942 1.28182 -4.72453
head 1.91789 0.498145 -1.33558
rclavicle 8.02593e-015 1.59028e-015
rhumerus -58.5258 -28.9551 -57.3594
rradius 12.0561
rwrist 16.8317
rhand -18.8285 9.27879
rfingers 7.12502
rthumb 7.47068 -20.5693
lclavicle 8.02593e-015 1.59028e-015
lhumerus -29.5509 -5.86913 91.3021
lradius 68.2035
lwrist 27.8998
lhand -26.034 15.0387
lfingers 7.12502
lthumb 0.512874 45.0179
rfemur -24.0034 6.15371 20.8604
rtibia 22.5903
rfoot -10.1779 -12.8345
rtoes -16.3784
lfemur 16.5684 -2.81502 -26.7499
ltibia 21.2571
lfoot -16.3838 1.02219
ltoes -15.06
339
root 11.0309 17.5393 28.6469 -3.86806 6.62328 1.31223
lowerback 5.86029 -1.54377 -2.41192
upperback 2.11462 -2.16345 1.66606
thorax -0.950553 -1.09392 3.20896
lowerneck -11.3629 0.738935 -1.26223
upperneck -0.377137 1.27544 -3.93848
head 1.84511 0.519357 -0.972317
rclavicle -2.23384e-014 -1.19271e-014
rhumerus -58.3508 -29.5579 -57.231
rradius 12.282
rwrist 16.8472
rhand -19.1312 7.01217
rfingers 7.12502
rthumb 7.17852 -22.8461
lclavicle -2.23384e-014 -1.19271e-014
lhumerus -29.4622 -5.43553 91.2024
lradius 67.6945
lwrist 27.5
lhand -25.4464 15.1459
lfingers 7.12502
lthumb 1.08045 45.1229
rfemur -24.3475 6.14578 21.2495
rtibia 24.187
rfoot -9.03842 -13.4801
rtoes -12.0986
lfemur 16.7955 -2.92231 -26.3711
ltibia 21.9789
lfoot -15.891 0.801329
ltoes -16.7935
340
root 11.0319 17.5355 28.846 -3.82536 6.91015 0.658582
lowerback 5.54231 -1.67473 -1.56211
upperback 2.1026 -2.28557 1.82086
thorax -0.805189 -1.1544 2.88684
lowerneck -11.7778 0.599935 -1.15464
upperneck -0.0907726 1.11297 -4.33811
head 2.01903 0.416307 -1.13011
rclavicle 7.23079e-015 -1.19271e-014
rhumerus -60.6629 -32.4987 -52.3126
rradius 11.5251
rwrist 20.5359
rhand -18.6605 8.39896
rfingers 7.12502
rthumb 7.63281 -21.4433
lclavicle 7.23079e-015 -1.19271e-014
lhumerus -29.7755 -5.33531 91.2672
lradius 67.104
lwrist 27.4279
lhand -26.0111 14.0486
lfingers 7.12502
lthumb 0.53507 44.0277
rfemur -24.5181 6.4393 21.9824
rtibia 25.5166
rfoot -7.52209 -15.0231
rtoes -11.2914
lfemur 16.8074 -2.96243 -25.4977
ltibia 23.1411
lfoot -15.3543 0.732768
ltoes -20.8531
